<?xml version="1.0" encoding="UTF-8"?>
<svg version="1.1" xmlns="http://www.w3.org/2000/svg" width="1080" height="1080">
<path d="M0 0 C356.4 0 712.8 0 1080 0 C1080 356.4 1080 712.8 1080 1080 C723.6 1080 367.2 1080 0 1080 C0 723.6 0 367.2 0 0 Z " fill="#000000" transform="translate(0,0)"/>
<path d="M0 0 C1.58421753 0.33004028 1.58421753 0.33004028 3.20043945 0.66674805 C35.07673848 7.73094026 64.26199816 25.01430378 82.85546875 52.26953125 C89.04130286 62.05313005 93.56905949 71.85254404 96.625 83 C96.99625 84.155 97.3675 85.31 97.75 86.5 C101.95158442 103.30633767 100.42909407 121.53723471 95.625 138 C95.41601074 138.72316406 95.20702148 139.44632813 94.99169922 140.19140625 C90.65104554 154.73178321 83.5019642 167.44459744 73.625 179 C72.96113281 179.78503906 72.29726563 180.57007813 71.61328125 181.37890625 C54.89142055 200.56251305 34.99912486 212.34956812 12.625 224 C11.46226562 224.61875 10.29953125 225.2375 9.1015625 225.875 C6.625 227 6.625 227 3.625 227 C9.08063383 233.96435232 14.74328494 240.25394311 21.05859375 246.4375 C23.84033129 249.21500354 26.39942263 252.11752151 28.94921875 255.10546875 C31.39154184 257.86660325 34.03054261 260.41468811 36.65625 263 C39.17925459 265.56305228 41.50062817 268.27345824 43.84375 271 C45.6992521 273.08337078 47.63723101 275.04281207 49.625 277 C52.12209965 279.45912095 54.48558142 281.95093786 56.75 284.625 C60.70997225 289.24192617 65.04361773 293.47297768 69.38720703 297.72509766 C72.34454796 300.63922933 75.17562958 303.59430744 77.875 306.75 C82.50405372 312.11267608 87.58404771 317.02999945 92.625 322 C94.54475944 323.8927387 96.46087254 325.78906758 98.375 327.6875 C99.21546875 328.51636719 100.0559375 329.34523438 100.921875 330.19921875 C102.963901 332.31501736 104.88684017 334.44217657 106.79907227 336.66967773 C111.32229933 341.88198808 116.20641382 346.72595408 121.08984375 351.59765625 C122.09215081 352.60063903 123.09430956 353.60377003 124.09632874 354.60704041 C126.18491534 356.69709138 128.27527388 358.78534888 130.36694336 360.87231445 C133.0273041 363.5269787 135.68314842 366.18610884 138.33766842 368.84661198 C140.40266606 370.91524949 142.47007204 372.98146699 144.5381794 375.04699516 C145.51756411 376.02572005 146.49622681 377.00516806 147.47410393 377.98539925 C153.02032148 383.54204054 158.64482071 388.91280443 164.625 394 C165.45386719 394.73347656 166.28273438 395.46695312 167.13671875 396.22265625 C179.17433909 406.4016853 192.00186286 410.36609091 207.5 410.25 C208.52480469 410.25773437 209.54960938 410.26546875 210.60546875 410.2734375 C216.45745618 410.25856587 221.79239814 409.76516759 227.47314453 408.33105469 C229.83306724 407.96798965 231.3717611 408.26918522 233.625 409 C227.32788177 413.31234533 221.02137849 417.61066852 214.70849609 421.89990234 C211.81698419 423.86924402 208.93350895 425.84986583 206.05078125 427.83203125 C187.80222103 440.29596616 169.58314721 451.82621626 146.625 450 C124.95402171 445.50327201 103.29728624 424.78223009 89.4921875 408.1875 C86.80048878 405.03404543 83.95681916 402.02747212 81.125 399 C77.10916508 394.69578493 73.1376961 390.36937725 69.2890625 385.9140625 C65.79208561 381.89171819 62.19703589 377.95561021 58.625 374 C50.05639793 364.51127959 50.05639793 364.51127959 46.1875 360.0625 C42.53321138 355.86557919 38.77755027 351.7634724 35.02734375 347.65234375 C33.05558156 345.47539004 31.11134663 343.28161326 29.1875 341.0625 C25.75663767 337.11254739 22.21369729 333.268129 18.66992188 329.41992188 C16.13774592 326.6654424 13.63472265 323.89266213 11.1875 321.0625 C6.67885526 315.87169625 1.9900897 310.84635749 -2.69189453 305.8125 C-4.38098016 303.9935601 -6.06362062 302.16880559 -7.74609375 300.34375 C-15.0984084 292.3978971 -22.60051734 284.59680571 -30.1875 276.875 C-31.47611938 275.54178711 -31.47611938 275.54178711 -32.79077148 274.18164062 C-40.25143098 266.6528898 -47.88979074 261.42406592 -58 258.1875 C-58.63881104 257.98229736 -59.27762207 257.77709473 -59.93579102 257.56567383 C-64.42917005 256.16845753 -68.68726581 255.28700413 -73.375 255 C-70.52483746 251.97003749 -67.61423478 249.69380685 -64.125 247.4375 C-59.1507567 244.17599981 -54.21677358 240.86584863 -49.3125 237.5 C-48.28249878 236.80100586 -48.28249878 236.80100586 -47.23168945 236.08789062 C-44.19586274 234.01397103 -41.28284419 231.92438812 -38.4375 229.58984375 C-32.09407263 224.38861089 -27.22007591 223.13183048 -19.08203125 222.40625 C-4.57833592 220.81680394 7.50846539 213.09915225 17.625 203 C18.25148438 202.38511719 18.87796875 201.77023437 19.5234375 201.13671875 C37.63631795 181.99935411 43.79952141 154.1620827 43.8125 128.75 C43.82474609 127.50347656 43.83699219 126.25695312 43.84960938 124.97265625 C43.88412189 102.95367118 36.83897996 85.16181577 21.625 69 C2.85897263 51.59826839 -22.47503979 40.24683717 -47.375 35 C-48.15657471 34.81880615 -48.93814941 34.6376123 -49.7434082 34.45092773 C-60.42932879 32.28926036 -71.27873055 32.7828467 -82.125 32.875 C-84.19009983 32.88504994 -86.25520439 32.89417222 -88.3203125 32.90234375 C-93.3386602 32.92419753 -98.35677691 32.95861653 -103.375 33 C-103.36452637 33.87841553 -103.35405273 34.75683105 -103.34326172 35.66186523 C-102.98947094 71.4014519 -104.06065131 107.10648128 -105.00830078 142.82931519 C-105.3242297 154.78118256 -105.59168399 166.73336139 -105.82376099 178.68716431 C-106.20334002 198.1356729 -106.83396324 217.57263454 -107.51025391 237.01293945 C-108.05059355 252.54623046 -108.52054592 268.07582122 -108.82247925 283.61560059 C-109.21348595 303.69348799 -110.06619088 323.71883921 -111.24609375 343.76525879 C-111.41563597 346.70447225 -111.57192181 349.64433135 -111.72850037 352.58425903 C-111.91217119 355.97350007 -112.1130733 359.36164947 -112.3125 362.75 C-112.37493896 363.93899902 -112.43737793 365.12799805 -112.50170898 366.35302734 C-113.12668943 376.26823832 -115.47139434 385.20763818 -119.0625 394.4375 C-119.49949219 395.59121094 -119.93648438 396.74492188 -120.38671875 397.93359375 C-122.02229824 401.64911923 -124.23248863 404.89360599 -126.49926758 408.25415039 C-127.22382645 409.33120743 -127.94838531 410.40826447 -128.69490051 411.51795959 C-129.52654976 412.7465696 -129.52654976 412.7465696 -130.375 414 C-121.91561988 414.02336875 -113.45625368 414.04103824 -104.99684906 414.05181217 C-101.06706079 414.05698811 -97.13729492 414.06398719 -93.20751953 414.07543945 C-89.40142096 414.08645943 -85.59534366 414.09231643 -81.78923035 414.09487724 C-80.35108608 414.09669763 -78.91294272 414.10025033 -77.47480774 414.10573006 C-67.39915494 414.14252655 -57.421472 413.7383326 -47.375 413 C-48.69953358 415.64906717 -49.99536216 415.95666864 -52.66015625 417.21484375 C-54.02611938 417.86477295 -54.02611938 417.86477295 -55.41967773 418.52783203 C-56.41555908 418.99302246 -57.41144043 419.45821289 -58.4375 419.9375 C-59.46883057 420.42331543 -60.50016113 420.90913086 -61.56274414 421.40966797 C-63.74118198 422.43336066 -65.92115543 423.45379099 -68.10253906 424.47119141 C-71.20663939 425.9213463 -74.30291892 427.38710783 -77.3984375 428.85546875 C-103.99645811 441.37541162 -128.39820779 450.22335598 -158.0390625 450.09765625 C-159.31228363 450.0962413 -160.58550476 450.09482635 -161.89730835 450.09336853 C-165.24764978 450.08875005 -168.59792027 450.07979885 -171.94824219 450.06866455 C-175.38085321 450.0583512 -178.81347163 450.05384986 -182.24609375 450.04882812 C-188.9557484 450.03785054 -195.66537012 450.02115135 -202.375 450 C-199.19603727 447.34454779 -196.1022384 445.19853342 -192.43359375 443.28515625 C-180.95021588 437.21905788 -180.95021588 437.21905788 -174.1796875 426.7265625 C-173.24423566 422.42560404 -172.77465621 418.12517923 -172.63598633 413.72729492 C-172.40300388 411.29263921 -171.97131372 409.1022407 -171.41674805 406.72631836 C-170.39468346 402.29519947 -169.81161143 397.92046672 -169.375 393.3984375 C-169.29442352 392.6081868 -169.21384705 391.8179361 -169.13082886 391.0037384 C-168.87324103 388.46135494 -168.62368524 385.91826849 -168.375 383.375 C-168.19829758 381.60064558 -168.02137544 379.82631303 -167.84423828 378.05200195 C-167.41899718 373.77193479 -167.00158283 369.49115644 -166.58850098 365.2098999 C-166.40405533 363.30074512 -166.21737338 361.39180664 -166.03027344 359.48291016 C-162.77739437 326.02236262 -161.91693768 292.5324949 -161.3702507 258.93893051 C-161.31166895 255.38711309 -161.25029301 251.83535436 -161.1880188 248.28359985 C-160.51868984 210.08199032 -160.05210493 171.87956979 -159.70117188 133.67382812 C-159.66543757 129.78775974 -159.62964086 125.90169194 -159.59375 122.015625 C-159.58510422 121.07641205 -159.57645844 120.1371991 -159.56755066 119.16952515 C-159.3903943 100.09097279 -159.12392579 81.01429588 -158.8125 61.9375 C-158.80126476 61.24796108 -158.79002953 60.55842216 -158.77845383 59.84798813 C-158.64863031 51.89857756 -158.51472865 43.94924264 -158.375 36 C-160.31113159 36.19698486 -160.31113159 36.19698486 -162.28637695 36.39794922 C-172.03919013 37.38518726 -181.79056365 38.344269 -191.5625 39.125 C-192.58923828 39.21136719 -193.61597656 39.29773438 -194.67382812 39.38671875 C-200.59726877 39.86362196 -206.43254105 40.08639089 -212.375 40 C-208.86852506 37.07081548 -205.30583029 34.66710663 -201.3515625 32.3828125 C-200.7767514 32.04869354 -200.20194031 31.71457458 -199.60971069 31.37033081 C-197.74181581 30.28504879 -195.87094439 29.20501482 -194 28.125 C-191.3862682 26.60977405 -188.77458143 25.09106653 -186.1640625 23.5703125 C-185.50899719 23.18885071 -184.85393188 22.80738892 -184.17901611 22.41436768 C-176.87654184 18.14748671 -169.679063 13.71002016 -162.52197266 9.20361328 C-161.64847168 8.6620459 -160.7749707 8.12047852 -159.875 7.5625 C-159.1221875 7.08941406 -158.369375 6.61632812 -157.59375 6.12890625 C-152.2863821 3.42850251 -146.85221574 3.95330974 -141.05859375 4.11328125 C-114.27025846 4.62128094 -88.16741021 3.27158777 -61.55053711 0.1340332 C-41.35338457 -2.2077535 -20.06534446 -4.47458049 0 0 Z " fill="#FDFDFD" transform="translate(342.375,329)"/>
<path d="M0 0 C0.99 0.33 1.98 0.66 3 1 C-9.40294125 9.53593227 -22.05524762 17.31969227 -35.6875 23.75 C-36.30318848 24.04148926 -36.91887695 24.33297852 -37.55322266 24.63330078 C-40.50647051 25.99206106 -43.39513461 27.11823271 -46.51171875 28.05078125 C-55.99154075 30.90243502 -59.32666872 35.88226822 -63.90087891 44.10498047 C-65.70018613 47.20720674 -67.77290217 50.09768804 -69.875 53 C-70.29048096 53.5767749 -70.70596191 54.1535498 -71.1340332 54.74780273 C-79.07581552 65.68585141 -87.64227892 76.06161059 -96.50146484 86.26318359 C-97.96824599 87.96319681 -99.41832416 89.67594935 -100.86328125 91.39453125 C-110.11017828 102.36510646 -119.8340977 112.9277325 -130.046875 123.0078125 C-133.27157056 126.21057935 -136.26135747 129.55425831 -139.22705078 132.99560547 C-142.32041229 136.49278228 -145.6275827 139.77173362 -148.9375 143.0625 C-149.60201172 143.73087891 -150.26652344 144.39925781 -150.95117188 145.08789062 C-154.11850247 148.24907703 -157.31722838 151.31096992 -160.72265625 154.21484375 C-166.62826388 159.31091054 -172.02198419 164.95409494 -177.5 170.5 C-190.00176072 183.1566955 -190.00176072 183.1566955 -196.27929688 188.50634766 C-198.98380656 190.85399099 -201.49194723 193.38352513 -204 195.9375 C-204.73283203 196.67709961 -204.73283203 196.67709961 -205.48046875 197.43164062 C-206.65603525 198.61873229 -207.82838826 199.80900498 -209 201 C-207.36107332 206.17286233 -204.18845708 210.13189933 -201 214.4375 C-199.81733429 216.05311168 -198.63504649 217.66900005 -197.453125 219.28515625 C-196.86724609 220.08324707 -196.28136719 220.88133789 -195.67773438 221.70361328 C-193.33806443 224.9060195 -191.04353382 228.13949544 -188.75 231.375 C-184.72485351 237.02485936 -180.61283561 242.60249978 -176.41845703 248.12792969 C-174.73102575 250.35499046 -173.05157937 252.58800631 -171.37109375 254.8203125 C-163.31745475 265.48722088 -155.07061564 275.94291111 -146.49853516 286.19726562 C-145.14591531 287.82446422 -143.80851448 289.46210303 -142.48046875 291.109375 C-137.94875564 296.7283818 -133.23621187 302.12191739 -128.34765625 307.43359375 C-126.29675902 309.67558956 -124.29522467 311.94791029 -122.3125 314.25 C-119.61802745 317.35463817 -116.77555634 320.24941408 -113.84130859 323.1262207 C-112.06826241 324.93053381 -110.42006104 326.79189677 -108.77734375 328.71484375 C-105.04224835 333.00906742 -101.09731448 337.05103064 -97.0625 341.0625 C-96.39798828 341.73087891 -95.73347656 342.39925781 -95.04882812 343.08789062 C-90.53095642 347.59699827 -85.84613658 351.84770609 -81 356 C-79.97907267 356.88921501 -78.95823189 357.77852941 -77.9375 358.66796875 C-53.60510518 379.53817442 -26.27030731 398.4322973 5 407 C6.08410156 407.31582031 7.16820312 407.63164063 8.28515625 407.95703125 C24.3379636 412.06880296 40.33410338 410.89449626 56 406 C57.05832031 405.69191406 58.11664062 405.38382813 59.20703125 405.06640625 C61.4802997 404.4019124 63.74085617 403.71034468 66 403 C56.13194623 414.78046729 45.17683569 425.61958878 33 435 C31.515 436.21042969 31.515 436.21042969 30 437.4453125 C21.8801174 444.00561418 13.2814521 449.23943102 4 454 C3.0821875 454.47824219 2.164375 454.95648437 1.21875 455.44921875 C-9.43211091 460.37697096 -20.21660847 458.38438418 -30.90234375 454.60546875 C-37.88516281 451.95978381 -44.4354798 448.53557081 -51 445 C-51.70882324 444.62746094 -52.41764648 444.25492188 -53.14794922 443.87109375 C-65.38014387 437.44026742 -76.76822786 430.04083758 -88 422 C-88.57443848 421.5889502 -89.14887695 421.17790039 -89.74072266 420.75439453 C-98.15172472 414.68636331 -106.14536397 408.08110022 -114.15917969 401.50439453 C-115.76758713 400.18993742 -117.38681695 398.88874538 -119.0078125 397.58984375 C-131.06858618 387.90254594 -142.07708784 377.09017715 -152.98632812 366.14404297 C-154.89078505 364.23417006 -156.80060819 362.32977851 -158.7109375 360.42578125 C-164.68874768 354.45122141 -170.53143125 348.4500566 -176 342 C-177.61967817 340.22429779 -179.24411718 338.45291693 -180.875 336.6875 C-185.01803222 332.14959482 -188.92380414 327.46855965 -192.78125 322.6875 C-194.97275268 320.0330038 -197.24247683 317.47999115 -199.5625 314.9375 C-203.11642208 311.0287974 -206.4602216 307.01398717 -209.7265625 302.86328125 C-211.43103659 300.71658107 -213.15257011 298.59302479 -214.8984375 296.48046875 C-222.69455583 287.02989965 -230.06415731 277.32463385 -237.25488281 267.40673828 C-238.99576366 265.00584245 -240.74351267 262.61006679 -242.4921875 260.21484375 C-245.20396613 256.49321207 -247.89402327 252.75684867 -250.56640625 249.00683594 C-251.49117182 247.71229013 -252.42053329 246.42100928 -253.35546875 245.13378906 C-254.54327325 243.49553254 -255.70995802 241.84202143 -256.875 240.1875 C-257.51179687 239.29417969 -258.14859375 238.40085937 -258.8046875 237.48046875 C-260.29418171 234.38952488 -259.94443524 233.24697635 -259 230 C-257.76000977 228.078125 -257.76000977 228.078125 -256.19140625 226.25 C-255.3257605 225.22338257 -255.3257605 225.22338257 -254.44262695 224.17602539 C-253.82218506 223.45793701 -253.20174316 222.73984863 -252.5625 222 C-251.27406751 220.47953528 -249.9876225 218.95738423 -248.703125 217.43359375 C-248.06955078 216.68319824 -247.43597656 215.93280273 -246.78320312 215.15966797 C-244.34598108 212.20790644 -242.08311119 209.14260907 -239.8125 206.0625 C-235.15206936 199.93277103 -229.85627858 194.97030603 -224 190 C-222.68584787 188.85606186 -221.37320583 187.71038523 -220.0625 186.5625 C-219.43601562 186.01722656 -218.80953125 185.47195313 -218.1640625 184.91015625 C-211.46192989 178.99437494 -204.8752003 172.96350962 -198.61328125 166.58203125 C-196.94831014 164.94931139 -195.21549278 163.4459865 -193.4375 161.9375 C-184.97014328 154.62778971 -176.99130217 146.5264256 -169.76953125 137.98828125 C-167.45227408 135.38456403 -164.9797882 132.9470175 -162.5 130.5 C-158.77064188 126.8151734 -155.19414844 123.06124544 -151.79296875 119.0703125 C-149.66853176 116.6172589 -147.45811363 114.25296853 -145.25 111.875 C-140.01581688 106.12766167 -135.22237469 100.09976089 -130.49023438 93.93603516 C-128.92451202 91.90192993 -127.34568462 89.87845233 -125.765625 87.85546875 C-113.62442756 72.24408205 -101.19026028 55.58288184 -94 37 C-99.47741323 37.52776759 -104.9542546 38.06103758 -110.43066406 38.59912109 C-112.28859426 38.7809241 -114.14666501 38.96129725 -116.00488281 39.14013672 C-129.90165408 40.46708847 -129.90165408 40.46708847 -143.68945312 42.625 C-146.84346348 43.13689348 -149.81359969 43.14483638 -153 43 C-133.91800454 23.17316828 -104.47637699 8.23025873 -76.87817383 7.57104492 C-75.63962646 7.5476001 -74.4010791 7.52415527 -73.125 7.5 C-70.44381738 7.42702808 -67.76293693 7.35133056 -65.08203125 7.26953125 C-64.40534897 7.24909256 -63.72866669 7.22865387 -63.03147888 7.20759583 C-30.66175271 7.51327534 -30.66175271 7.51327534 0 0 Z " fill="#FDFDFD" transform="translate(932,323)"/>
<path d="M0 0 C-3.32911802 2.1076035 -6.6661865 4.20203243 -10.00976562 6.28662109 C-11.67708137 7.32939517 -13.33868108 8.38129198 -15 9.43359375 C-24.99271796 15.64999388 -35.41737842 20.86517158 -46 26 C-47.53780376 71.26521394 -49.02459455 116.53119799 -50 161.8125 C-50.01877953 162.6780312 -50.03755905 163.54356239 -50.05690765 164.43532181 C-50.56425628 187.85305181 -51.00855624 211.27193536 -51.4352417 234.69125271 C-51.59298945 243.34948013 -51.75156289 252.00768986 -51.91308594 260.66584778 C-51.93730684 261.96466541 -51.93730684 261.96466541 -51.96201706 263.28972179 C-52.0275056 266.79984713 -52.0930363 270.30997166 -52.15877533 273.82009232 C-52.35500792 284.30058466 -52.5454768 294.78114347 -52.72609663 305.26191694 C-52.84099118 311.90629973 -52.96206682 318.55055253 -53.08766985 325.19474143 C-53.16086348 329.07944239 -53.23114835 332.96414131 -53.29380798 336.84902763 C-53.35211756 340.46152721 -53.41862039 344.07378769 -53.49110413 347.68602979 C-53.5275142 349.60245894 -53.55547851 351.51904302 -53.58300781 353.43562031 C-54.07402969 376.44972789 -58.37278914 401.2066411 -74 419 C-75.00579058 420.32897069 -76.00654734 421.66178119 -77 423 C-70.81512984 423.07539695 -64.63053989 423.12917667 -58.4453125 423.16479492 C-56.35086393 423.17967754 -54.25644534 423.19999013 -52.16210938 423.22631836 C-33.91601016 423.44957917 -16.63865538 422.25191929 0.78790283 416.54121399 C5.81424204 414.90712102 5.81424204 414.90712102 8 416 C6.58074219 416.96486328 6.58074219 416.96486328 5.1328125 417.94921875 C-1.61162908 422.55229365 -8.31160065 427.1985387 -14.90356445 432.01831055 C-35.16509579 446.82623035 -52.83829692 457.48976336 -78.5625 457.1875 C-79.60857422 457.18685547 -80.65464844 457.18621094 -81.73242188 457.18554688 C-86.52997471 457.1587449 -91.2458764 457.01542943 -96.015625 456.4921875 C-104.70573351 455.6193339 -113.46437012 455.89561886 -122.1875 455.9375 C-124.01627482 455.94252544 -125.84505097 455.9470865 -127.67382812 455.95117188 C-132.11591895 455.96209381 -136.55794441 455.97930077 -141 456 C-140.07158824 454.89496448 -139.13995758 453.792633 -138.20703125 452.69140625 C-137.68858643 452.07724854 -137.1701416 451.46309082 -136.63598633 450.83032227 C-135.07009656 449.0784232 -133.43224908 447.50875314 -131.6875 445.9375 C-119.40395969 433.70819166 -112.2693733 415.7476284 -109 399 C-108.77340008 397.84405767 -108.77340008 397.84405767 -108.54222238 396.66476297 C-104.58795395 375.8184594 -104.691574 354.62450858 -104.68332577 333.48432446 C-104.67956842 329.47650779 -104.66438335 325.46873038 -104.65071106 321.4609375 C-104.62862946 314.54670135 -104.61350253 307.63247951 -104.60334396 300.71821594 C-104.58864666 290.72183185 -104.56308039 280.72549775 -104.53501268 270.72914332 C-104.48974329 254.50368702 -104.4530473 238.27822344 -104.421875 222.05273438 C-104.39160753 206.30792974 -104.35722018 190.56314283 -104.31738281 174.81835938 C-104.31369049 173.3582156 -104.31369049 173.3582156 -104.30992357 171.86857396 C-104.29754739 166.98429365 -104.28509116 162.10001354 -104.27259517 157.21573353 C-104.16932525 116.81051374 -104.08002474 76.4052721 -104 36 C-105.25022949 36.14622803 -106.50045898 36.29245605 -107.78857422 36.44311523 C-112.46637404 36.99001171 -117.1443011 37.53581313 -121.82226562 38.08129883 C-123.83955263 38.31668125 -125.8568059 38.55235307 -127.87402344 38.78833008 C-130.7883212 39.12919626 -133.7027423 39.46899082 -136.6171875 39.80859375 C-137.50614716 39.91280136 -138.39510681 40.01700897 -139.31100464 40.12437439 C-145.20187266 40.80944325 -151.09717591 41.42715355 -157 42 C-138.89484468 22.81133152 -108.35093019 7.23822472 -81.9296875 6.4375 C-80.97216583 6.40068115 -80.01464417 6.3638623 -79.02810669 6.32592773 C-75.97730293 6.2093235 -72.92626994 6.10362986 -69.875 6 C-57.9299059 5.58414672 -46.01649635 5.10731395 -34.109375 4.03515625 C-33.23304413 3.95680542 -32.35671326 3.87845459 -31.4538269 3.79772949 C-22.54344561 2.94623717 -13.3504098 1.82219663 -4.7265625 -0.65234375 C-3 -1 -3 -1 0 0 Z " fill="#FDFDFD" transform="translate(715,324)"/>
</svg>
